<svg width="30" height="30" viewBox="0 0 30 30" fill="none" xmlns="http://www.w3.org/2000/svg">
<g clip-path="url(#clip0_237_12)">
<path d="M20.625 0H9.375C6.8886 0 4.50403 0.98772 2.74587 2.74587C0.98772 4.50403 0 6.8886 0 9.375L0 20.625C0 23.1114 0.98772 25.496 2.74587 27.2541C4.50403 29.0123 6.8886 30 9.375 30H20.625C23.1114 30 25.496 29.0123 27.2541 27.2541C29.0123 25.496 30 23.1114 30 20.625V9.375C30 6.8886 29.0123 4.50403 27.2541 2.74587C25.496 0.98772 23.1114 0 20.625 0ZM27.1875 20.625C27.1875 24.2437 24.2437 27.1875 20.625 27.1875H9.375C5.75625 27.1875 2.8125 24.2437 2.8125 20.625V9.375C2.8125 5.75625 5.75625 2.8125 9.375 2.8125H20.625C24.2437 2.8125 27.1875 5.75625 27.1875 9.375V20.625Z" fill="white"/>
<path d="M15 7.5C13.0109 7.5 11.1032 8.29018 9.6967 9.6967C8.29018 11.1032 7.5 13.0109 7.5 15C7.5 16.9891 8.29018 18.8968 9.6967 20.3033C11.1032 21.7098 13.0109 22.5 15 22.5C16.9891 22.5 18.8968 21.7098 20.3033 20.3033C21.7098 18.8968 22.5 16.9891 22.5 15C22.5 13.0109 21.7098 11.1032 20.3033 9.6967C18.8968 8.29018 16.9891 7.5 15 7.5ZM15 19.6875C13.7573 19.686 12.5658 19.1917 11.6871 18.3129C10.8083 17.4342 10.314 16.2427 10.3125 15C10.3125 12.4144 12.4162 10.3125 15 10.3125C17.5838 10.3125 19.6875 12.4144 19.6875 15C19.6875 17.5838 17.5838 19.6875 15 19.6875Z" fill="white"/>
<path d="M23.0626 7.93674C23.6145 7.93674 24.062 7.4893 24.062 6.93736C24.062 6.38542 23.6145 5.93799 23.0626 5.93799C22.5107 5.93799 22.0632 6.38542 22.0632 6.93736C22.0632 7.4893 22.5107 7.93674 23.0626 7.93674Z" fill="white"/>
</g>
<defs>
<clipPath id="clip0_237_12">
<rect width="30" height="30" fill="white"/>
</clipPath>
</defs>
</svg>
